<svg version="1.1" xmlns="http://www.w3.org/2000/svg" viewBox="0 0 353.2602291191947 311.8436490863062" width="353.2602291191947" height="311.8436490863062">
  <!-- svg-source:excalidraw -->
  
  <defs>
    <style>
      @font-face {
        font-family: "Virgil";
        src: url("https://excalidraw.com/Virgil.woff2");
      }
      @font-face {
        font-family: "Cascadia";
        src: url("https://excalidraw.com/Cascadia.woff2");
      }
    </style>
  </defs>
  <rect x="0" y="0" width="353.2602291191947" height="311.8436490863062" fill="#ffffff"></rect><g stroke-linecap="round"><g transform="translate(84.70649416664946 20.43649076760812) rotate(0 -0.0026581638283005304 127.47687015212568)"><path d="M-0.7 -1.11 C-0.87 41.57, -1.41 213.07, -1.12 256.06 M1.13 0.93 C1.33 43.22, 1.06 211.73, 1 254.09" stroke="#000000" stroke-width="4" fill="none"></path></g></g><g stroke-linecap="round"><g transform="translate(214.19933649775203 146.5101856221071) rotate(89.99999999999994 0.23236580023672104 127.95969676811674)"><path d="M0.57 0.12 C0.7 42.58, 1.15 212.73, 1.04 255.43 M-0.6 -0.87 C-0.54 41.72, 0.7 214.26, 0.64 256.79" stroke="#000000" stroke-width="4" fill="none"></path></g></g><g stroke-linecap="round"><g transform="translate(86.02822906382517 266.00042544501446) rotate(0 45.048026073955725 -99.30846145042597)"><path d="M1.12 0.71 C15.76 -32.14, 73.12 -164.25, 87.72 -197.59 M0.24 0.03 C15.26 -33.11, 75.23 -166.22, 89.85 -199.32" stroke="#c92a2a" stroke-width="2" fill="none"></path></g></g><g stroke-linecap="round"><g transform="translate(174.34178741228652 66.7168407623542) rotate(0 -0.2620133496577637 49.0297921720354)"><path d="M0.32 -0.66 C0.43 15.61, 0.5 81.01, 0.41 97.47 M-0.97 1.61 C-0.89 18.05, 0.03 82.41, 0.08 98.72" stroke="#c92a2a" stroke-width="2" fill="none"></path></g></g><g stroke-linecap="round"><g transform="translate(174.89245843925482 166.00367792634904) rotate(0 78.662671100838 -0.5847017443800837)"><path d="M0.55 0.09 C26.68 0.03, 129.91 0.57, 155.84 0.36 M-0.62 -0.91 C25.95 -1.4, 131.42 -1.64, 157.95 -1.57" stroke="#c92a2a" stroke-width="2" fill="none"></path></g></g><g transform="translate(10 120.42732668130577) rotate(0 29.40644483052779 10.338203260732428)"><text x="0" y="14.676406521464884" font-family="Virgil, Segoe UI Emoji" font-size="16.541125217171906px" fill="#000000" text-anchor="start" style="white-space: pre;" direction="ltr">Friction</text></g><g transform="translate(153.66273568247516 281.16724256484133) rotate(0 51.920754153900816 10.338203260732428)"><text x="0" y="14.676406521464884" font-family="Virgil, Segoe UI Emoji" font-size="16.5411252171719px" fill="#000000" text-anchor="start" style="white-space: pre;" direction="ltr">Applied force</text></g><g stroke-linecap="round"><g transform="translate(175.87539479216775 67.32178244505133) rotate(0 -0.07361734583969337 -13.58932730987027)"><path d="M-1.14 1.01 C-0.88 -3.83, 0.77 -23.17, 0.99 -28.19" stroke="#000000" stroke-width="2.5" fill="none" stroke-dasharray="8 10"></path></g></g><g transform="translate(110.31886127080998 10) rotate(0 85.232742438483 10.338203260732428)"><text x="0" y="14.676406521464884" font-family="Virgil, Segoe UI Emoji" font-size="16.541125217171906px" fill="#000000" text-anchor="start" style="white-space: pre;" direction="ltr">Object starts sliding</text></g><g transform="translate(193.7902801907985 183.0691805130017) rotate(0 58.81288966105558 10.338203260732428)"><text x="0" y="14.676406521464884" font-family="Virgil, Segoe UI Emoji" font-size="16.541125217171906px" fill="#000000" text-anchor="start" style="white-space: pre;" direction="ltr">Kinetic friction</text></g><g transform="translate(120.27416811448211 222.12461505354702) rotate(0 58.58315181081707 10.338203260732428)"><text x="0" y="14.676406521464884" font-family="Virgil, Segoe UI Emoji" font-size="16.541125217171896px" fill="#000000" text-anchor="start" style="white-space: pre;" direction="ltr">Static friction</text></g><g stroke-linecap="round"><g transform="translate(143.24432840486224 216.6988188120357) rotate(0 -6.680504888152882 -17.60167702284582)"><path d="M0.01 -0.3 C-2.04 -6.06, -11.1 -29.25, -13.37 -34.91" stroke="#000000" stroke-width="2.5" fill="none" stroke-dasharray="8 10"></path></g></g><g stroke-linecap="round"><g transform="translate(240.6021861757058 183.50872518304197) rotate(0 -0.28933582976446814 -8.91935257676704)"><path d="M-0.18 0.5 C-0.31 -2.75, -0.28 -15.15, -0.4 -18.34" stroke="#000000" stroke-width="2.5" fill="none" stroke-dasharray="8 10"></path></g></g></svg>