<svg version="1.1" xmlns="http://www.w3.org/2000/svg" viewBox="0 0 452.8863636363635 195" width="452.8863636363635" height="195">
  <!-- svg-source:excalidraw -->
  
  <defs>
    <style>
      @font-face {
        font-family: "Virgil";
        src: url("https://excalidraw.com/Virgil.woff2");
      }
      @font-face {
        font-family: "Cascadia";
        src: url("https://excalidraw.com/Cascadia.woff2");
      }
    </style>
  </defs>
  <rect x="0" y="0" width="452.8863636363635" height="195" fill="#ffffff"></rect><g stroke-linecap="round" transform="translate(97.33333333333348 10) rotate(0 87.5 87.5)"><path d="M175 87.5 C175 90.55, 174.84 93.61, 174.52 96.65 C174.2 99.68, 173.72 102.71, 173.09 105.69 C172.45 108.67, 171.66 111.64, 170.72 114.54 C169.78 117.44, 168.68 120.3, 167.44 123.09 C166.2 125.87, 164.8 128.61, 163.28 131.25 C161.75 133.89, 160.08 136.46, 158.29 138.93 C156.5 141.4, 154.57 143.78, 152.53 146.05 C150.49 148.31, 148.31 150.49, 146.05 152.53 C143.78 154.57, 141.4 156.5, 138.93 158.29 C136.46 160.08, 133.89 161.75, 131.25 163.28 C128.61 164.8, 125.87 166.2, 123.09 167.44 C120.3 168.68, 117.44 169.78, 114.54 170.72 C111.64 171.66, 108.67 172.45, 105.69 173.09 C102.71 173.72, 99.68 174.2, 96.65 174.52 C93.61 174.84, 90.55 175, 87.5 175 C84.45 175, 81.39 174.84, 78.35 174.52 C75.32 174.2, 72.29 173.72, 69.31 173.09 C66.33 172.45, 63.36 171.66, 60.46 170.72 C57.56 169.78, 54.7 168.68, 51.91 167.44 C49.13 166.2, 46.39 164.8, 43.75 163.28 C41.11 161.75, 38.54 160.08, 36.07 158.29 C33.6 156.5, 31.22 154.57, 28.95 152.53 C26.69 150.49, 24.51 148.31, 22.47 146.05 C20.43 143.78, 18.5 141.4, 16.71 138.93 C14.92 136.46, 13.25 133.89, 11.72 131.25 C10.2 128.61, 8.8 125.87, 7.56 123.09 C6.32 120.3, 5.22 117.44, 4.28 114.54 C3.34 111.64, 2.55 108.67, 1.91 105.69 C1.28 102.71, 0.8 99.68, 0.48 96.65 C0.16 93.61, 0 90.55, 0 87.5 C0 84.45, 0.16 81.39, 0.48 78.35 C0.8 75.32, 1.28 72.29, 1.91 69.31 C2.55 66.33, 3.34 63.36, 4.28 60.46 C5.22 57.56, 6.32 54.7, 7.56 51.91 C8.8 49.13, 10.2 46.39, 11.72 43.75 C13.25 41.11, 14.92 38.54, 16.71 36.07 C18.5 33.6, 20.43 31.22, 22.47 28.95 C24.51 26.69, 26.69 24.51, 28.95 22.47 C31.22 20.43, 33.6 18.5, 36.07 16.71 C38.54 14.92, 41.11 13.25, 43.75 11.72 C46.39 10.2, 49.13 8.8, 51.91 7.56 C54.7 6.32, 57.56 5.22, 60.46 4.28 C63.36 3.34, 66.33 2.55, 69.31 1.91 C72.29 1.28, 75.32 0.8, 78.35 0.48 C81.39 0.16, 84.45 0, 87.5 0 C90.55 0, 93.61 0.16, 96.65 0.48 C99.68 0.8, 102.71 1.28, 105.69 1.91 C108.67 2.55, 111.64 3.34, 114.54 4.28 C117.44 5.22, 120.3 6.32, 123.09 7.56 C125.87 8.8, 128.61 10.2, 131.25 11.72 C133.89 13.25, 136.46 14.92, 138.93 16.71 C141.4 18.5, 143.78 20.43, 146.05 22.47 C148.31 24.51, 150.49 26.69, 152.53 28.95 C154.57 31.22, 156.5 33.6, 158.29 36.07 C160.08 38.54, 161.75 41.11, 163.28 43.75 C164.8 46.39, 166.2 49.13, 167.44 51.91 C168.68 54.7, 169.78 57.56, 170.72 60.46 C171.66 63.36, 172.45 66.33, 173.09 69.31 C173.72 72.29, 174.2 75.32, 174.52 78.35 C174.84 81.39, 174.92 85.98, 175 87.5 C175.08 89.02, 175.08 85.98, 175 87.5" stroke="#000000" stroke-width="4" fill="none"></path></g><g stroke-linecap="round"><g transform="translate(10 184.83333333333348) rotate(0 179.5 0)"><path d="M0 0 C59.83 0, 299.17 0, 359 0 M0 0 C59.83 0, 299.17 0, 359 0" stroke="#000000" stroke-width="4" fill="none"></path></g></g><g transform="translate(297.8863636363635 142.1742424242425) rotate(0 72.5 12.5)"><text x="0" y="18" font-family="Virgil, Segoe UI Emoji" font-size="20px" fill="#000000" text-anchor="start" style="white-space: pre;" direction="ltr">Contact patch</text></g><g stroke-linecap="round"><g transform="translate(198.72240259740192 183.88852813852895) rotate(0 49.91341991341983 -10.35714285714289)"><path d="M0 0 C16.64 -3.45, 83.19 -17.26, 99.83 -20.71" stroke="#c92a2a" stroke-width="2.5" fill="none" stroke-dasharray="8 10"></path></g></g><g transform="translate(21.979978354978357 30.99242424242493) rotate(0 26.5 12.5)"><text x="0" y="18" font-family="Virgil, Segoe UI Emoji" font-size="20px" fill="#000000" text-anchor="start" style="white-space: pre;" direction="ltr">Wheel</text></g><g transform="translate(29.12283549783524 136.70670995671026) rotate(0 25 12.5)"><text x="0" y="18" font-family="Virgil, Segoe UI Emoji" font-size="20px" fill="#000000" text-anchor="start" style="white-space: pre;" direction="ltr">Road</text></g><g stroke-linecap="round"><g transform="translate(56.26569264069258 56.42099567099626) rotate(0 23.214285714285552 3.2142857142856656)"><path d="M0 0 C7.74 1.07, 38.69 5.36, 46.43 6.43" stroke="#000000" stroke-width="2.5" fill="none" stroke-dasharray="8 10"></path></g></g><g stroke-linecap="round"><g transform="translate(51.97997835497836 161.42099567099626) rotate(0 4.285714285714221 11.071428571428555)"><path d="M0 0 C1.43 3.69, 7.14 18.45, 8.57 22.14" stroke="#000000" stroke-width="2.5" fill="none" stroke-dasharray="8 10"></path></g></g></svg>