<svg version="1.1" xmlns="http://www.w3.org/2000/svg" viewBox="0 0 568.9846272264667 198.977625066131" width="568.9846272264667" height="198.977625066131">
  <!-- svg-source:excalidraw -->
  
  <defs>
    <style class="style-fonts">
      @font-face {
        font-family: "Virgil";
        src: url("https://excalidraw.com/Virgil.woff2");
      }
      @font-face {
        font-family: "Cascadia";
        src: url("https://excalidraw.com/Cascadia.woff2");
      }
      @font-face {
        font-family: "Assistant";
        src: url("https://excalidraw.com/Assistant-Regular.woff2");
      }
    </style>
    
  </defs>
  <rect x="0" y="0" width="568.9846272264667" height="198.977625066131" fill="#ffffff"></rect><g transform="translate(10.845064086630373 11.690128173260234) rotate(0 42.32994842529297 12.5)"><text x="42.32994842529297" y="0" font-family="Virgil, Segoe UI Emoji" font-size="20px" fill="#000000" text-anchor="middle" style="white-space: pre;" direction="ltr" dominant-baseline="text-before-edge">Publisher</text></g><g transform="translate(10.845064086629463 163.977625066131) rotate(0 42.32994842529297 12.5)"><text x="42.32994842529297" y="0" font-family="Virgil, Segoe UI Emoji" font-size="20px" fill="#000000" text-anchor="middle" style="white-space: pre;" direction="ltr" dominant-baseline="text-before-edge">Publisher</text></g><g transform="translate(10.845064086629463 114.96390804158483) rotate(0 42.32994842529297 12.5)"><text x="42.32994842529297" y="0" font-family="Virgil, Segoe UI Emoji" font-size="20px" fill="#000000" text-anchor="middle" style="white-space: pre;" direction="ltr" dominant-baseline="text-before-edge">Publisher</text></g><g transform="translate(10 63.41499875714834) rotate(0 42.32994842529297 12.5)"><text x="42.32994842529297" y="0" font-family="Virgil, Segoe UI Emoji" font-size="20px" fill="#000000" text-anchor="middle" style="white-space: pre;" direction="ltr" dominant-baseline="text-before-edge">Publisher</text></g><g stroke-linecap="round" transform="translate(195.14577906578097 23.52102538608176) rotate(0 84.92894070632565 17.746345819232232)"><path d="M8.87 0 C66.73 1.54, 125.17 2.66, 160.98 0 M8.87 0 C62.61 0.74, 115.66 0.04, 160.98 0 M160.98 0 C165.42 -0.58, 171.74 3.98, 169.86 8.87 M160.98 0 C168.81 -1.4, 171.07 2.75, 169.86 8.87 M169.86 8.87 C169.85 13.98, 171.12 20.39, 169.86 26.62 M169.86 8.87 C170.21 12.75, 170.02 16.84, 169.86 26.62 M169.86 26.62 C171.6 32, 165.41 35.74, 160.98 35.49 M169.86 26.62 C168.78 33.36, 169.14 33.37, 160.98 35.49 M160.98 35.49 C115.41 35.29, 72.67 38.93, 8.87 35.49 M160.98 35.49 C116.55 35.65, 72.64 34.82, 8.87 35.49 M8.87 35.49 C1.24 33.73, -1.99 32.19, 0 26.62 M8.87 35.49 C1.36 35.96, -0.28 31.59, 0 26.62 M0 26.62 C-0.73 21.71, -0.54 18.37, 0 8.87 M0 26.62 C-0.87 21.7, 0.28 17.75, 0 8.87 M0 8.87 C1.58 4.73, 1.11 0.22, 8.87 0 M0 8.87 C0.35 1.66, 3.73 -1.16, 8.87 0" stroke="#000000" stroke-width="2" fill="none"></path></g><g transform="translate(254.35474906898162 28.767371205313992) rotate(0 25.719970703125 12.5)"><text x="25.719970703125" y="0" font-family="Virgil, Segoe UI Emoji" font-size="20px" fill="#000000" text-anchor="middle" style="white-space: pre;" direction="ltr" dominant-baseline="text-before-edge">Topic</text></g><g stroke-linecap="round" transform="translate(194.72324702246624 80.1403191902989) rotate(0 84.92894070632565 17.746345819232232)"><path d="M8.87 0 C45.89 1.59, 83.97 -0.44, 160.98 0 M8.87 0 C63.78 0.39, 116.79 -0.6, 160.98 0 M160.98 0 C168.72 0.02, 171.45 3.95, 169.86 8.87 M160.98 0 C165.53 -0.49, 168.54 1.78, 169.86 8.87 M169.86 8.87 C169.85 16.02, 168.24 23.5, 169.86 26.62 M169.86 8.87 C170.43 14.85, 170.37 21.31, 169.86 26.62 M169.86 26.62 C168.47 33.9, 166.64 37, 160.98 35.49 M169.86 26.62 C170.23 32.51, 166.22 35.88, 160.98 35.49 M160.98 35.49 C102.94 32.63, 44.45 33.05, 8.87 35.49 M160.98 35.49 C120.28 34.87, 77.71 34.54, 8.87 35.49 M8.87 35.49 C2.51 33.9, -1.78 33.6, 0 26.62 M8.87 35.49 C1.04 34.88, 2.03 31.76, 0 26.62 M0 26.62 C1.47 18.17, 1.55 12.71, 0 8.87 M0 26.62 C-0.8 20.52, 0.12 14.33, 0 8.87 M0 8.87 C0.65 4.14, 2.92 -0.98, 8.87 0 M0 8.87 C1.99 3.71, 5.07 2.01, 8.87 0" stroke="#000000" stroke-width="2" fill="none"></path></g><g transform="translate(253.9322170256669 85.38666500953113) rotate(0 25.719970703125 12.5)"><text x="25.719970703125" y="0" font-family="Virgil, Segoe UI Emoji" font-size="20px" fill="#000000" text-anchor="middle" style="white-space: pre;" direction="ltr" dominant-baseline="text-before-edge">Topic</text></g><g stroke-linecap="round" transform="translate(194.72324702246578 134.22442073462574) rotate(0 84.92894070632565 17.746345819232232)"><path d="M8.87 0 C51.96 1.03, 96.63 -2.71, 160.98 0 M8.87 0 C45.88 1.3, 82.41 0.84, 160.98 0 M160.98 0 C168.84 0.26, 170.59 1.76, 169.86 8.87 M160.98 0 C167.38 -1.55, 171.96 4.7, 169.86 8.87 M169.86 8.87 C171.42 12.69, 170.67 14.64, 169.86 26.62 M169.86 8.87 C169.22 13.11, 169.39 16.96, 169.86 26.62 M169.86 26.62 C168.81 33.33, 167.05 36.55, 160.98 35.49 M169.86 26.62 C170.06 30.62, 168.85 33.23, 160.98 35.49 M160.98 35.49 C106.09 33.24, 54.61 35.59, 8.87 35.49 M160.98 35.49 C124.83 33.97, 87.09 33.88, 8.87 35.49 M8.87 35.49 C3.96 34.01, -0.3 31.2, 0 26.62 M8.87 35.49 C3.35 35.71, 1.43 31.83, 0 26.62 M0 26.62 C0.26 20.7, -1.28 13.73, 0 8.87 M0 26.62 C0.29 21.85, 0.43 18.25, 0 8.87 M0 8.87 C-1.28 1.97, 3.76 1.69, 8.87 0 M0 8.87 C-1.04 2.74, 2.21 2.02, 8.87 0" stroke="#000000" stroke-width="2" fill="none"></path></g><g transform="translate(253.93221702566643 139.47076655385797) rotate(0 25.719970703125 12.5)"><text x="25.719970703125" y="0" font-family="Virgil, Segoe UI Emoji" font-size="20px" fill="#000000" text-anchor="middle" style="white-space: pre;" direction="ltr" dominant-baseline="text-before-edge">Topic</text></g><g stroke-linecap="round"><g transform="translate(103.8788577097298 177.3226891527611) rotate(0 44.78839659139567 -12.675961299451586)"><path d="M-0.78 -0.88 C14.24 -5.18, 73.77 -21.24, 88.97 -25.5 M1.01 1.28 C16.53 -2.86, 76.51 -19.54, 91.36 -24.04" stroke="#000000" stroke-width="2" fill="none"></path></g><g transform="translate(103.8788577097298 177.3226891527611) rotate(0 44.78839659139567 -12.675961299451586)"><path d="M93.14 -26.03 L81.76 -13.26 L77.22 -26.93 L91.78 -24.4" stroke="none" stroke-width="0" fill="#000000" fill-rule="evenodd"></path><path d="M91.36 -24.04 C87.99 -22.87, 86.61 -19.06, 80.05 -14.18 M91.36 -24.04 C88.65 -22.19, 86.6 -19.8, 80.05 -14.18 M80.05 -14.18 C79.2 -19.4, 76.29 -24.33, 76.54 -26.36 M80.05 -14.18 C79.44 -16.62, 78.43 -18.91, 76.54 -26.36 M76.54 -26.36 C80.86 -26.36, 84.48 -26.34, 91.36 -24.04 M76.54 -26.36 C81.44 -25.07, 84.47 -25.57, 91.36 -24.04 M91.36 -24.04 C91.36 -24.04, 91.36 -24.04, 91.36 -24.04 M91.36 -24.04 C91.36 -24.04, 91.36 -24.04, 91.36 -24.04" stroke="#000000" stroke-width="2" fill="none"></path></g></g><mask></mask><g stroke-linecap="round"><g transform="translate(103.03379362309943 129.99910030147515) rotate(0 45.63346067802581 13.521025386081703)"><path d="M0.2 0.01 C15.43 4.43, 76.36 21.59, 91.41 25.97 M-1.16 -1.03 C13.93 3.55, 74.85 22.24, 90.54 26.95" stroke="#000000" stroke-width="2" fill="none"></path></g><g transform="translate(103.03379362309943 129.99910030147515) rotate(0 45.63346067802581 13.521025386081703)"><path d="M88.69 28.3 L76.18 29.92 L81.3 17.85 L92.53 27.57" stroke="none" stroke-width="0" fill="#000000" fill-rule="evenodd"></path><path d="M90.54 26.95 C86.08 27.78, 80.27 27.25, 75.69 29.06 M90.54 26.95 C87.49 28.04, 82.95 27.52, 75.69 29.06 M75.69 29.06 C76.44 25.65, 78.31 23.29, 79.37 16.93 M75.69 29.06 C77.18 25.23, 78.07 20.73, 79.37 16.93 M79.37 16.93 C83.92 20.53, 86.69 24.5, 90.54 26.95 M79.37 16.93 C81.99 19.61, 85.41 22.35, 90.54 26.95 M90.54 26.95 C90.54 26.95, 90.54 26.95, 90.54 26.95 M90.54 26.95 C90.54 26.95, 90.54 26.95, 90.54 26.95" stroke="#000000" stroke-width="2" fill="none"></path></g></g><mask></mask><g stroke-linecap="round"><g transform="translate(103.8788577097298 129.99910030147515) rotate(0 42.67573637482019 -45.63346067802573)"><path d="M-0.41 0.17 C14.16 -15.1, 72.12 -75.98, 86.37 -91.32 M1.57 -0.79 C16.16 -15.89, 72.18 -74.8, 85.95 -89.82" stroke="#000000" stroke-width="2" fill="none"></path></g><g transform="translate(103.8788577097298 129.99910030147515) rotate(0 42.67573637482019 -45.63346067802573)"><path d="M85.49 -90.88 L81.61 -74.49 L72.52 -84.44 L85.44 -89.09" stroke="none" stroke-width="0" fill="#000000" fill-rule="evenodd"></path><path d="M85.95 -89.82 C85.21 -85.54, 83.94 -84.11, 81.28 -75.56 M85.95 -89.82 C84.3 -86.73, 83.76 -82.29, 81.28 -75.56 M81.28 -75.56 C77.09 -79.59, 73.45 -81.61, 72.03 -84.23 M81.28 -75.56 C78.65 -78.52, 75.04 -81.64, 72.03 -84.23 M72.03 -84.23 C76.03 -84.31, 78.6 -86.96, 85.95 -89.82 M72.03 -84.23 C75.41 -84.74, 78.17 -86.5, 85.95 -89.82 M85.95 -89.82 C85.95 -89.82, 85.95 -89.82, 85.95 -89.82 M85.95 -89.82 C85.95 -89.82, 85.95 -89.82, 85.95 -89.82" stroke="#000000" stroke-width="2" fill="none"></path></g></g><mask></mask><g stroke-linecap="round"><g transform="translate(104.72392179635972 82.67551145018922) rotate(0 43.94333250476552 8.450640866301057)"><path d="M0.03 1.15 C14.87 4.3, 73.5 15.21, 88.14 17.75 M-1.41 0.72 C13.37 3.63, 72.57 13.28, 87.33 16.07" stroke="#000000" stroke-width="2" fill="none"></path></g><g transform="translate(104.72392179635972 82.67551145018922) rotate(0 43.94333250476552 8.450640866301057)"><path d="M87.79 15.29 L74.47 20.78 L74.4 8.85 L85.53 18.01" stroke="none" stroke-width="0" fill="#000000" fill-rule="evenodd"></path><path d="M87.33 16.07 C85.48 17.27, 81.83 17.85, 72.85 19.97 M87.33 16.07 C83.07 16.42, 79.57 17.34, 72.85 19.97 M72.85 19.97 C74.43 14.62, 73.88 12.16, 75.02 7.48 M72.85 19.97 C72.58 17.18, 73.98 14.68, 75.02 7.48 M75.02 7.48 C78.64 12.09, 85.34 14.93, 87.33 16.07 M75.02 7.48 C79.96 10.37, 84.7 13.86, 87.33 16.07 M87.33 16.07 C87.33 16.07, 87.33 16.07, 87.33 16.07 M87.33 16.07 C87.33 16.07, 87.33 16.07, 87.33 16.07" stroke="#000000" stroke-width="2" fill="none"></path></g></g><mask></mask><g stroke-linecap="round"><g transform="translate(102.18872953646951 25.211153559341994) rotate(0 45.63346067802581 36.760287768409626)"><path d="M-0.47 0.98 C14.85 13.12, 76.33 61.23, 91.75 73.14 M1.49 0.44 C16.7 12.73, 76.02 62.36, 91.06 74.48" stroke="#000000" stroke-width="2" fill="none"></path></g><g transform="translate(102.18872953646951 25.211153559341994) rotate(0 45.63346067802581 36.760287768409626)"><path d="M90.22 73.13 L77.5 70.89 L85.65 59.3 L89.61 73.33" stroke="none" stroke-width="0" fill="#000000" fill-rule="evenodd"></path><path d="M91.06 74.48 C88.09 73.96, 82.22 73.29, 76.54 70.74 M91.06 74.48 C88.18 74.11, 84.45 72.38, 76.54 70.74 M76.54 70.74 C77.98 69.42, 79.66 66.39, 84.59 60.95 M76.54 70.74 C79.08 68.09, 81.23 64.89, 84.59 60.95 M84.59 60.95 C85.13 63.69, 86.59 67.89, 91.06 74.48 M84.59 60.95 C85.58 64.49, 87.66 66.28, 91.06 74.48 M91.06 74.48 C91.06 74.48, 91.06 74.48, 91.06 74.48 M91.06 74.48 C91.06 74.48, 91.06 74.48, 91.06 74.48" stroke="#000000" stroke-width="2" fill="none"></path></g></g><mask></mask><g stroke-linecap="round"><g transform="translate(105.56898588298964 26.901281732602172) rotate(0 41.83067228819027 8.028108822986013)"><path d="M-0.79 0.16 C13.33 2.92, 69.8 14.03, 84.03 16.57 M0.99 -0.8 C15.04 1.6, 69.4 11.85, 83.27 14.72" stroke="#000000" stroke-width="2" fill="none"></path></g><g transform="translate(105.56898588298964 26.901281732602172) rotate(0 41.83067228819027 8.028108822986013)"><path d="M82.74 16.28 L67.12 19.3 L69.62 7.56 L84.09 13.81" stroke="none" stroke-width="0" fill="#000000" fill-rule="evenodd"></path><path d="M83.27 14.72 C79.94 15.96, 76.86 17.49, 68.71 18.33 M83.27 14.72 C80.18 15.84, 75.76 17.23, 68.71 18.33 M68.71 18.33 C68.93 14.52, 69.91 9.79, 71.15 5.89 M68.71 18.33 C68.84 15.65, 70.27 12.73, 71.15 5.89 M71.15 5.89 C73.36 7.05, 77.29 10.96, 83.27 14.72 M71.15 5.89 C74.68 8.4, 77.58 11.05, 83.27 14.72 M83.27 14.72 C83.27 14.72, 83.27 14.72, 83.27 14.72 M83.27 14.72 C83.27 14.72, 83.27 14.72, 83.27 14.72" stroke="#000000" stroke-width="2" fill="none"></path></g></g><mask></mask><g transform="translate(459.189547271264 10) rotate(0 48.62994384765625 12.5)"><text x="48.62994384765625" y="0" font-family="Virgil, Segoe UI Emoji" font-size="20px" fill="#000000" text-anchor="middle" style="white-space: pre;" direction="ltr" dominant-baseline="text-before-edge">Subscriber</text></g><g transform="translate(460.87967544452385 54.96435789084717) rotate(0 48.62994384765625 12.5)"><text x="48.62994384765625" y="0" font-family="Virgil, Segoe UI Emoji" font-size="20px" fill="#000000" text-anchor="middle" style="white-space: pre;" direction="ltr" dominant-baseline="text-before-edge">Subscriber</text></g><g transform="translate(460.03461135789394 106.51326717528372) rotate(0 48.62994384765625 12.5)"><text x="48.62994384765625" y="0" font-family="Virgil, Segoe UI Emoji" font-size="20px" fill="#000000" text-anchor="middle" style="white-space: pre;" direction="ltr" dominant-baseline="text-before-edge">Subscriber</text></g><g transform="translate(461.7247395311542 160.59736871961047) rotate(0 48.62994384765625 12.5)"><text x="48.62994384765625" y="0" font-family="Virgil, Segoe UI Emoji" font-size="20px" fill="#000000" text-anchor="middle" style="white-space: pre;" direction="ltr" dominant-baseline="text-before-edge">Subscriber</text></g><g stroke-linecap="round"><g transform="translate(365.5811284351171 150.6638142176579) rotate(0 42.809534439793424 11.73909420873263)"><path d="M0.18 0.46 C14.75 4.73, 72.41 20.52, 86.67 24.41 M-1.18 -0.34 C13.39 3.71, 71.9 18.51, 86.27 22.78" stroke="#000000" stroke-width="2" fill="none"></path></g><g transform="translate(365.5811284351171 150.6638142176579) rotate(0 42.809534439793424 11.73909420873263)"><path d="M85.3 24.51 L70.38 25.09 L74.59 12.4 L87.95 23.06" stroke="none" stroke-width="0" fill="#000000" fill-rule="evenodd"></path><path d="M86.27 22.78 C83.34 24.71, 80.44 24.13, 71.49 25.33 M86.27 22.78 C80.9 23.42, 77.26 23.67, 71.49 25.33 M71.49 25.33 C73.6 21.97, 74.02 20.61, 74.81 13.09 M71.49 25.33 C72.48 22.04, 73.2 19.9, 74.81 13.09 M74.81 13.09 C77.92 16.47, 83.75 21.67, 86.27 22.78 M74.81 13.09 C79.01 16.36, 82.03 18.62, 86.27 22.78 M86.27 22.78 C86.27 22.78, 86.27 22.78, 86.27 22.78 M86.27 22.78 C86.27 22.78, 86.27 22.78, 86.27 22.78" stroke="#000000" stroke-width="2" fill="none"></path></g></g><mask></mask><g stroke-linecap="round"><g transform="translate(367.53885273832293 150.81145262142198) rotate(0 40.985608201560126 -15.471982964375655)"><path d="M-1 0.52 C12.46 -4.71, 67.27 -26.28, 81.3 -31.56 M0.67 -0.26 C14.48 -5.32, 69.93 -25.39, 83.66 -30.34" stroke="#000000" stroke-width="2" fill="none"></path></g><g transform="translate(367.53885273832293 150.81145262142198) rotate(0 40.985608201560126 -15.471982964375655)"><path d="M83.97 -31.02 L74.31 -21.39 L67.29 -32.17 L83.33 -30.63" stroke="none" stroke-width="0" fill="#000000" fill-rule="evenodd"></path><path d="M83.66 -30.34 C80.64 -27.64, 75.58 -21.68, 73.03 -19.76 M83.66 -30.34 C81.3 -26.82, 77.5 -24.72, 73.03 -19.76 M73.03 -19.76 C71.29 -24.81, 70.83 -28.8, 68.72 -31.68 M73.03 -19.76 C71.9 -22.93, 71.04 -26.47, 68.72 -31.68 M68.72 -31.68 C73.87 -32.31, 79.43 -31.38, 83.66 -30.34 M68.72 -31.68 C72.06 -30.63, 77.13 -30.49, 83.66 -30.34 M83.66 -30.34 C83.66 -30.34, 83.66 -30.34, 83.66 -30.34 M83.66 -30.34 C83.66 -30.34, 83.66 -30.34, 83.66 -30.34" stroke="#000000" stroke-width="2" fill="none"></path></g></g><mask></mask><g stroke-linecap="round"><g transform="translate(369.2289809115832 147.06863238287434) rotate(0 42.25320433150523 -62.442948514833226)"><path d="M0.31 -0.43 C14.52 -21.07, 70.71 -103.57, 84.76 -124.22 M-0.99 -1.69 C13.13 -22.66, 69.79 -105.22, 83.95 -126" stroke="#000000" stroke-width="2" fill="none"></path></g><g transform="translate(369.2289809115832 147.06863238287434) rotate(0 42.25320433150523 -62.442948514833226)"><path d="M83.52 -126.07 L83.05 -109.82 L69.25 -117.58 L82.7 -125" stroke="none" stroke-width="0" fill="#000000" fill-rule="evenodd"></path><path d="M83.95 -126 C82.74 -121.86, 83.47 -118.2, 81.5 -111.2 M83.95 -126 C83.03 -120.75, 82.12 -115.24, 81.5 -111.2 M81.5 -111.2 C79.07 -112.97, 76.74 -114.17, 71.04 -118.35 M81.5 -111.2 C79.08 -113.78, 75.49 -115.66, 71.04 -118.35 M71.04 -118.35 C74.07 -121.57, 76.08 -123.15, 83.95 -126 M71.04 -118.35 C75.4 -121.65, 81.17 -123.78, 83.95 -126 M83.95 -126 C83.95 -126, 83.95 -126, 83.95 -126 M83.95 -126 C83.95 -126, 83.95 -126, 83.95 -126" stroke="#000000" stroke-width="2" fill="none"></path></g></g><mask></mask><g stroke-linecap="round"><g transform="translate(365.8487245650631 99.09664081047276) rotate(0 42.67573637482019 -14.589887627699326)"><path d="M0.51 1.12 C14.69 -3.69, 70.92 -24.73, 85.2 -29.68 M-0.68 0.67 C13.31 -3.92, 69.75 -23.2, 84.17 -28.4" stroke="#000000" stroke-width="2" fill="none"></path></g><g transform="translate(365.8487245650631 99.09664081047276) rotate(0 42.67573637482019 -14.589887627699326)"><path d="M84.46 -28.27 L72.22 -19.58 L69.61 -27.98 L84.35 -26.45" stroke="none" stroke-width="0" fill="#000000" fill-rule="evenodd"></path><path d="M84.17 -28.4 C82.13 -25.27, 76.74 -20.79, 73.43 -17.93 M84.17 -28.4 C80.92 -24.26, 76.61 -20.43, 73.43 -17.93 M73.43 -17.93 C72.51 -23.21, 71.64 -25.31, 69.24 -29.9 M73.43 -17.93 C71.44 -21.68, 70.66 -26.2, 69.24 -29.9 M69.24 -29.9 C73.94 -28.71, 82.34 -28.54, 84.17 -28.4 M69.24 -29.9 C74.04 -28.72, 79.75 -28.86, 84.17 -28.4 M84.17 -28.4 C84.17 -28.4, 84.17 -28.4, 84.17 -28.4 M84.17 -28.4 C84.17 -28.4, 84.17 -28.4, 84.17 -28.4" stroke="#000000" stroke-width="2" fill="none"></path></g></g><mask></mask><g stroke-linecap="round"><g transform="translate(366.00366047843227 37.57320599686204) rotate(0 40.90814024487531 41.434236081285945)"><path d="M0.93 0.79 C14.69 14.81, 67.78 69.42, 81.38 83.14 M-0.04 0.15 C13.63 13.88, 66.51 67.09, 80.21 81.15" stroke="#000000" stroke-width="2" fill="none"></path></g><g transform="translate(366.00366047843227 37.57320599686204) rotate(0 40.90814024487531 41.434236081285945)"><path d="M81.43 82.62 L65.07 76.32 L76.81 66.82 L81.45 82.24" stroke="none" stroke-width="0" fill="#000000" fill-rule="evenodd"></path><path d="M80.21 81.15 C78.42 79.67, 74.95 80.08, 66.15 75.92 M80.21 81.15 C75.8 79.06, 70.66 77.98, 66.15 75.92 M66.15 75.92 C68.96 73, 72.52 68.7, 75.18 67.02 M66.15 75.92 C68.43 73.98, 70.93 71.58, 75.18 67.02 M75.18 67.02 C78.12 71.57, 77.84 77.07, 80.21 81.15 M75.18 67.02 C76.28 70.86, 77.3 73.7, 80.21 81.15 M80.21 81.15 C80.21 81.15, 80.21 81.15, 80.21 81.15 M80.21 81.15 C80.21 81.15, 80.21 81.15, 80.21 81.15" stroke="#000000" stroke-width="2" fill="none"></path></g></g><mask></mask></svg>