<svg version="1.1" xmlns="http://www.w3.org/2000/svg" viewBox="0 0 516.4279125315325 236.56795485053567" width="516.4279125315325" height="236.56795485053567">
  <!-- svg-source:excalidraw -->
  
  <defs>
    <style class="style-fonts">
      @font-face {
        font-family: "Virgil";
        src: url("https://excalidraw.com/Virgil.woff2");
      }
      @font-face {
        font-family: "Cascadia";
        src: url("https://excalidraw.com/Cascadia.woff2");
      }
      @font-face {
        font-family: "Assistant";
        src: url("https://excalidraw.com/Assistant-Regular.woff2");
      }
    </style>
    
  </defs>
  <rect x="0" y="0" width="516.4279125315325" height="236.56795485053567" fill="#ffffff"></rect><g stroke-linecap="round" transform="translate(20.320938069989552 36.3355848675925) rotate(0 160.28052363289135 95.11618499147158)"><path d="M32 0 C110.84 -2.62, 191.04 -1.71, 288.56 0 M32 0 C97.01 -1.96, 160.05 -1.27, 288.56 0 M288.56 0 C309.09 1.14, 321.17 11.78, 320.56 32 M288.56 0 C311.3 0.49, 322.59 9.91, 320.56 32 M320.56 32 C322.72 59.55, 322.46 87.65, 320.56 158.23 M320.56 32 C319.04 69.61, 320.23 107.11, 320.56 158.23 M320.56 158.23 C322.1 181.36, 311.24 189.13, 288.56 190.23 M320.56 158.23 C320.34 178.13, 311.11 190.45, 288.56 190.23 M288.56 190.23 C209.77 191.61, 130.13 191.29, 32 190.23 M288.56 190.23 C228.72 189.11, 169.23 189.68, 32 190.23 M32 190.23 C10.3 188.61, -1.83 180.75, 0 158.23 M32 190.23 C8.41 189.76, -0.05 180.52, 0 158.23 M0 158.23 C2.19 112.27, 0.54 67.32, 0 32 M0 158.23 C-0.45 113.46, -0.41 69.42, 0 32 M0 32 C1.88 10.32, 8.8 -1.69, 32 0 M0 32 C0.79 11.58, 8.37 -1.67, 32 0" stroke="#000000" stroke-width="2" fill="none"></path></g><g transform="translate(10 10) rotate(0 41.969970703125 12.5)"><text x="0" y="0" font-family="Virgil, Segoe UI Emoji" font-size="20px" fill="#000000" text-anchor="start" style="white-space: pre;" direction="ltr" dominant-baseline="text-before-edge">GateKey</text></g><g transform="translate(413.02531525244603 65.97234565318013) rotate(0 30.78997802734375 12.5)"><text x="0" y="0" font-family="Virgil, Segoe UI Emoji" font-size="20px" fill="#000000" text-anchor="start" style="white-space: pre;" direction="ltr" dominant-baseline="text-before-edge">MQTT</text></g><g stroke-linecap="round" transform="translate(386.06853066077247 52.89399213977799) rotate(0 59.29536528059407 24.55333375785773)"><path d="M12.28 0 C49.97 -0.31, 87.98 1.1, 106.31 0 M12.28 0 C46.61 -0.53, 78.37 0.1, 106.31 0 M106.31 0 C115.88 1.78, 118.36 5.61, 118.59 12.28 M106.31 0 C114.6 -0.07, 117.49 5.1, 118.59 12.28 M118.59 12.28 C118.82 18.93, 120.41 23.85, 118.59 36.83 M118.59 12.28 C119.1 18.39, 118.67 25.3, 118.59 36.83 M118.59 36.83 C118.63 46.16, 116.16 50.34, 106.31 49.11 M118.59 36.83 C120.04 43.49, 115.33 48.05, 106.31 49.11 M106.31 49.11 C77.38 49.49, 44.87 48.02, 12.28 49.11 M106.31 49.11 C72.51 49.33, 39.33 48.66, 12.28 49.11 M12.28 49.11 C2.25 50.97, -0.7 45.23, 0 36.83 M12.28 49.11 C3.63 50.38, 1.54 44.71, 0 36.83 M0 36.83 C1.85 30.37, -0.37 18.29, 0 12.28 M0 36.83 C-1.08 30.81, -0.75 26.14, 0 12.28 M0 12.28 C0.03 4.02, 3.03 1.71, 12.28 0 M0 12.28 C0.46 6.01, 4.43 -1.86, 12.28 0" stroke="#000000" stroke-width="2" fill="none"></path></g><g stroke-linecap="round" transform="translate(35.44545784559023 48.24944707529653) rotate(0 59.29536528059407 29.623718277638375)"><path d="M14.81 0 C45.36 -1.22, 74 0.65, 103.78 0 M14.81 0 C49.11 0, 82.66 0.34, 103.78 0 M103.78 0 C115.21 0.06, 119.08 6.12, 118.59 14.81 M103.78 0 C114.05 0.5, 119.12 5.47, 118.59 14.81 M118.59 14.81 C120.29 25.65, 119.42 36.37, 118.59 44.44 M118.59 14.81 C117.64 22.9, 119.44 31.59, 118.59 44.44 M118.59 44.44 C119.66 54.13, 114.71 58.77, 103.78 59.25 M118.59 44.44 C120.58 52.18, 114.77 60.08, 103.78 59.25 M103.78 59.25 C81.62 59.74, 56.34 59.35, 14.81 59.25 M103.78 59.25 C77.05 59.39, 51.85 58.23, 14.81 59.25 M14.81 59.25 C3.85 59.74, 0.66 52.54, 0 44.44 M14.81 59.25 C3.9 60.46, 2.18 54.55, 0 44.44 M0 44.44 C0.6 35.98, -2.14 30.03, 0 14.81 M0 44.44 C-0.54 33.17, 0.96 21.17, 0 14.81 M0 14.81 C-0.29 6.01, 5.17 -0.83, 14.81 0 M0 14.81 C-1.38 7.06, 2.69 0.41, 14.81 0" stroke="#000000" stroke-width="2" fill="none"></path></g><g transform="translate(49.107362448158256 51.67617866740147) rotate(0 47.169952392578125 25)"><text x="47.169952392578125" y="0" font-family="Virgil, Segoe UI Emoji" font-size="20px" fill="#000000" text-anchor="middle" style="white-space: pre;" direction="ltr" dominant-baseline="text-before-edge">Voice</text><text x="47.169952392578125" y="25" font-family="Virgil, Segoe UI Emoji" font-size="20px" fill="#000000" text-anchor="middle" style="white-space: pre;" direction="ltr" dominant-baseline="text-before-edge">Controller</text></g><g stroke-linecap="round" transform="translate(37.98065010548089 147.1219452110189) rotate(0 63.52068571374457 30)"><path d="M15 0 C39.96 2.02, 66.83 1.08, 112.04 0 M15 0 C47.89 0.54, 79.69 -0.42, 112.04 0 M112.04 0 C121.26 -0.32, 126.91 4.99, 127.04 15 M112.04 0 C122.7 -1.13, 128.55 5.07, 127.04 15 M127.04 15 C126.47 26.28, 126.39 35.64, 127.04 45 M127.04 15 C126.52 22.63, 127.09 30.83, 127.04 45 M127.04 45 C127.16 55.63, 123.15 59.24, 112.04 60 M127.04 45 C126.98 54.69, 123.57 59.62, 112.04 60 M112.04 60 C89.81 60.42, 63.29 61.55, 15 60 M112.04 60 C81.36 59.83, 49.8 60.97, 15 60 M15 60 C4.19 61.57, 0.73 56.22, 0 45 M15 60 C6.8 62.21, -1.98 54.23, 0 45 M0 45 C1.34 34.96, 0.53 28.01, 0 15 M0 45 C-0.21 35.33, -0.68 25.63, 0 15 M0 15 C1.39 3.09, 6.13 1.28, 15 0 M0 15 C-1.9 5.73, 3.49 -0.33, 15 0" stroke="#000000" stroke-width="2" fill="none"></path></g><g transform="translate(44.89139624403015 152.1219452110189) rotate(0 56.60993957519531 25)"><text x="56.60993957519531" y="0" font-family="Virgil, Segoe UI Emoji" font-size="20px" fill="#000000" text-anchor="middle" style="white-space: pre;" direction="ltr" dominant-baseline="text-before-edge">Notification</text><text x="56.60993957519531" y="25" font-family="Virgil, Segoe UI Emoji" font-size="20px" fill="#000000" text-anchor="middle" style="white-space: pre;" direction="ltr" dominant-baseline="text-before-edge">Queue</text></g><g stroke-linecap="round"><g transform="translate(95.90975879210919 106.60534429835843) rotate(0 0.782519807846711 18.591409905862406)"><path d="M0.32 -0.18 C0.66 5.99, 1.5 30.84, 1.76 36.97 M-0.17 -0.74 C0.13 5.5, 1.12 31.28, 1.42 37.56" stroke="#000000" stroke-width="2" fill="none"></path></g><g transform="translate(95.90975879210919 106.60534429835843) rotate(0 0.782519807846711 18.591409905862406)"><path d="M1.02 37.93 L-5.77 25.05 L7.19 22.86 L1.66 37.93" stroke="none" stroke-width="0" fill="#000000" fill-rule="evenodd"></path><path d="M1.42 37.56 C-0.54 34.53, -2.31 31.35, -5.49 24.25 M1.42 37.56 C0.13 34.7, -1.56 32.48, -5.49 24.25 M-5.49 24.25 C-1.5 23.54, 1.92 23.43, 7.18 23.71 M-5.49 24.25 C-1.89 23.82, 2 23.99, 7.18 23.71 M7.18 23.71 C5.97 26.88, 4.74 29.97, 1.42 37.56 M7.18 23.71 C5.38 27.7, 3.55 32.11, 1.42 37.56 M1.42 37.56 C1.42 37.56, 1.42 37.56, 1.42 37.56 M1.42 37.56 C1.42 37.56, 1.42 37.56, 1.42 37.56" stroke="#000000" stroke-width="2" fill="none"></path></g></g><mask></mask><g stroke-linecap="round" transform="translate(203.61321108498123 147.96700929764893) rotate(0 59.29536528059407 30)"><path d="M15 0 C46.35 -0.37, 76.62 -1.49, 103.59 0 M15 0 C41.64 -0.19, 66.68 -0.16, 103.59 0 M103.59 0 C114.43 1.87, 120.11 3.61, 118.59 15 M103.59 0 C115.19 2.19, 118.7 4.01, 118.59 15 M118.59 15 C120.28 23.39, 119 33.46, 118.59 45 M118.59 15 C118.29 22.57, 117.71 31.89, 118.59 45 M118.59 45 C118.47 54.8, 114.39 58.24, 103.59 60 M118.59 45 C119.19 56.63, 112.09 61.42, 103.59 60 M103.59 60 C70.48 62.1, 40.63 60.03, 15 60 M103.59 60 C79.05 60.21, 52.46 61.1, 15 60 M15 60 C6.48 60.88, -1.47 56.1, 0 45 M15 60 C6.43 59.8, 1.29 53.46, 0 45 M0 45 C1.46 35.5, 0.83 24.02, 0 15 M0 45 C1.21 37.91, -0.01 30.99, 0 15 M0 15 C0.62 4.25, 6.19 0.1, 15 0 M0 15 C1.72 4.87, 3.46 1.25, 15 0" stroke="#000000" stroke-width="2" fill="none"></path></g><g transform="translate(218.98861634360264 152.96700929764893) rotate(0 43.919960021972656 25)"><text x="43.919960021972656" y="0" font-family="Virgil, Segoe UI Emoji" font-size="20px" fill="#000000" text-anchor="middle" style="white-space: pre;" direction="ltr" dominant-baseline="text-before-edge">Telegram</text><text x="43.919960021972656" y="25" font-family="Virgil, Segoe UI Emoji" font-size="20px" fill="#000000" text-anchor="middle" style="white-space: pre;" direction="ltr" dominant-baseline="text-before-edge">Notifier</text></g><g stroke-linecap="round" transform="translate(387.8371819703443 147.12194521101878) rotate(0 59.29536528059407 24.55333375785773)"><path d="M12.28 0 C45.35 -1.79, 72.66 -1.45, 106.31 0 M12.28 0 C43.76 1.18, 75.95 0.16, 106.31 0 M106.31 0 C115.61 -1.12, 117.56 3.27, 118.59 12.28 M106.31 0 C113.55 0.54, 120.01 6.35, 118.59 12.28 M118.59 12.28 C117.46 20.54, 118.87 25.15, 118.59 36.83 M118.59 12.28 C117.94 21.09, 119.52 29.06, 118.59 36.83 M118.59 36.83 C120.4 46.21, 113.29 50.85, 106.31 49.11 M118.59 36.83 C117.83 46.76, 112.46 49.56, 106.31 49.11 M106.31 49.11 C75.15 50.74, 43.27 49.02, 12.28 49.11 M106.31 49.11 C76.97 48.58, 49.53 49.81, 12.28 49.11 M12.28 49.11 C2.27 48, -0.96 45.05, 0 36.83 M12.28 49.11 C2.39 48.46, -0.16 44.44, 0 36.83 M0 36.83 C0.23 31.14, 1.71 26.24, 0 12.28 M0 36.83 C-0.92 29.1, -0.45 22.52, 0 12.28 M0 12.28 C-0.41 3.92, 4.7 0.61, 12.28 0 M0 12.28 C0.26 5.74, 5.57 -1.11, 12.28 0" stroke="#000000" stroke-width="2" fill="none"></path></g><g transform="translate(402.36752314233536 159.8443817560551) rotate(0 43.919960021972656 12.5)"><text x="43.919960021972656" y="0" font-family="Virgil, Segoe UI Emoji" font-size="20px" fill="#000000" text-anchor="middle" style="white-space: pre;" direction="ltr" dominant-baseline="text-before-edge">Telegram</text></g><g stroke-linecap="round" transform="translate(201.9230829117214 55.00995976833747) rotate(0 59.29536528059407 30)"><path d="M15 0 C47.42 -2.34, 77.73 1.08, 103.59 0 M15 0 C44.67 -1.42, 74.25 0.15, 103.59 0 M103.59 0 C113.44 -1.44, 117.79 3.88, 118.59 15 M103.59 0 C113.22 1.31, 117.07 5.74, 118.59 15 M118.59 15 C120.06 25.02, 118.29 32.26, 118.59 45 M118.59 15 C118.88 24.49, 118.31 35.28, 118.59 45 M118.59 45 C120.29 56.54, 115.19 60.58, 103.59 60 M118.59 45 C119.75 56.79, 114.97 58.18, 103.59 60 M103.59 60 C71.08 58.55, 39.58 60.68, 15 60 M103.59 60 C70.32 59.78, 35.4 59, 15 60 M15 60 C5.55 61.08, 0.33 54.7, 0 45 M15 60 C4.85 59.09, 0.15 56.59, 0 45 M0 45 C-0.78 34.49, -1.61 21.17, 0 15 M0 45 C0 38.28, 0.92 29.82, 0 15 M0 15 C1.36 6.41, 5.71 0.37, 15 0 M0 15 C2.15 6.37, 4.25 0.76, 15 0" stroke="#000000" stroke-width="2" fill="none"></path></g><g transform="translate(224.5784945790342 60.00995976833747) rotate(0 36.63995361328125 25)"><text x="36.63995361328125" y="0" font-family="Virgil, Segoe UI Emoji" font-size="20px" fill="#000000" text-anchor="middle" style="white-space: pre;" direction="ltr" dominant-baseline="text-before-edge">MQTT </text><text x="36.63995361328125" y="25" font-family="Virgil, Segoe UI Emoji" font-size="20px" fill="#000000" text-anchor="middle" style="white-space: pre;" direction="ltr" dominant-baseline="text-before-edge">Notifier</text></g><g stroke-linecap="round"><g transform="translate(166.57127048974326 176.74566348865721) rotate(0 16.056217645971856 -45.6334606780257)"><path d="M0.09 0.45 C5.76 -14.75, 27.48 -76.61, 32.96 -91.94 M-1.33 -0.36 C4.36 -15.35, 26.79 -75.75, 32.46 -90.76" stroke="#000000" stroke-width="2" fill="none"></path></g><g transform="translate(166.57127048974326 176.74566348865721) rotate(0 16.056217645971856 -45.6334606780257)"><path d="M33.02 -91.4 L34.77 -74.5 L20.86 -81.23 L31.86 -90.08" stroke="none" stroke-width="0" fill="#000000" fill-rule="evenodd"></path><path d="M32.46 -90.76 C33.18 -86.56, 32.02 -83.4, 33.63 -75.81 M32.46 -90.76 C32.73 -85.9, 32.79 -82.65, 33.63 -75.81 M33.63 -75.81 C30.43 -78.07, 29.1 -77.62, 21.76 -80.25 M33.63 -75.81 C30.48 -77.21, 26.73 -78.79, 21.76 -80.25 M21.76 -80.25 C23.18 -81.42, 27.54 -86.2, 32.46 -90.76 M21.76 -80.25 C25.85 -83.66, 30.84 -88.05, 32.46 -90.76 M32.46 -90.76 C32.46 -90.76, 32.46 -90.76, 32.46 -90.76 M32.46 -90.76 C32.46 -90.76, 32.46 -90.76, 32.46 -90.76" stroke="#000000" stroke-width="2" fill="none"></path></g></g><mask></mask><g stroke-linecap="round"><g transform="translate(166.57127048974326 176.74566348865721) rotate(0 19.436473992492438 1.2675961299451615)"><path d="M-0.45 0.02 C6.1 0.35, 32.45 1.6, 38.97 2.04 M0.32 -0.45 C6.83 -0.08, 32.28 1.86, 38.59 2.48" stroke="#000000" stroke-width="2" fill="none"></path></g><g transform="translate(166.57127048974326 176.74566348865721) rotate(0 19.436473992492438 1.2675961299451615)"><path d="M38.89 3.15 L24.83 6.85 L26.42 -4.74 L38.51 1.55" stroke="none" stroke-width="0" fill="#000000" fill-rule="evenodd"></path><path d="M38.59 2.48 C35.21 3.81, 31.1 4.63, 24.51 7.64 M38.59 2.48 C34.13 4.27, 29.82 5.69, 24.51 7.64 M24.51 7.64 C24.4 3.71, 25.48 0.53, 25.59 -4.99 M24.51 7.64 C24.57 4.1, 25.25 0.54, 25.59 -4.99 M25.59 -4.99 C28.44 -2.79, 31.83 -1.35, 38.59 2.48 M25.59 -4.99 C30.95 -2.04, 35.52 1.14, 38.59 2.48 M38.59 2.48 C38.59 2.48, 38.59 2.48, 38.59 2.48 M38.59 2.48 C38.59 2.48, 38.59 2.48, 38.59 2.48" stroke="#000000" stroke-width="2" fill="none"></path></g></g><mask></mask><g stroke-linecap="round"><g transform="translate(322.0630624296823 80.40835761282517) rotate(0 30.844839161998834 0)"><path d="M-1.17 -0.72 C9.19 -0.7, 50.51 0.61, 61.06 0.85 M0.41 1.51 C11.27 1.14, 53.24 -0.37, 63.44 -0.82" stroke="#000000" stroke-width="2" fill="none"></path></g><g transform="translate(322.0630624296823 80.40835761282517) rotate(0 30.844839161998834 0)"><path d="M64.63 0.7 L51.72 6.96 L51.12 -6.52 L64.48 -2.43" stroke="none" stroke-width="0" fill="#000000" fill-rule="evenodd"></path><path d="M63.44 -0.82 C59.82 -0.32, 59.03 2.45, 50.11 6.05 M63.44 -0.82 C58.85 1.81, 54.19 4.32, 50.11 6.05 M50.11 6.05 C49.79 2.08, 49.24 -0.31, 49.61 -6.62 M50.11 6.05 C50.37 2.55, 49.28 -1.24, 49.61 -6.62 M49.61 -6.62 C52.95 -6.35, 58.72 -3.4, 63.44 -0.82 M49.61 -6.62 C53.49 -4.78, 57.58 -3.15, 63.44 -0.82 M63.44 -0.82 C63.44 -0.82, 63.44 -0.82, 63.44 -0.82 M63.44 -0.82 C63.44 -0.82, 63.44 -0.82, 63.44 -0.82" stroke="#000000" stroke-width="2" fill="none"></path></g></g><mask></mask><g stroke-linecap="round"><g transform="translate(322.9081265163122 179.28085574854754) rotate(0 30.422307118683875 0.42253204331507277)"><path d="M-0.12 0.16 C9.89 0.43, 49.71 1.73, 60.01 1.75 M-1.64 -0.8 C8.75 -0.87, 51.78 -0.25, 62.28 0.11" stroke="#000000" stroke-width="2" fill="none"></path></g><g transform="translate(322.9081265163122 179.28085574854754) rotate(0 30.422307118683875 0.42253204331507277)"><path d="M63.96 0.3 L49.1 4.31 L48.62 -5.85 L64.01 1.07" stroke="none" stroke-width="0" fill="#000000" fill-rule="evenodd"></path><path d="M62.28 0.11 C58.42 0.83, 55.3 4.71, 48.55 6.14 M62.28 0.11 C58.22 0.93, 56.02 3.71, 48.55 6.14 M48.55 6.14 C49.63 3.76, 49.33 0.29, 48.83 -6.53 M48.55 6.14 C48.04 2.29, 48.09 -1.44, 48.83 -6.53 M48.83 -6.53 C51.92 -5.09, 54.34 -3.76, 62.28 0.11 M48.83 -6.53 C52.95 -4.85, 55.1 -3.42, 62.28 0.11 M62.28 0.11 C62.28 0.11, 62.28 0.11, 62.28 0.11 M62.28 0.11 C62.28 0.11, 62.28 0.11, 62.28 0.11" stroke="#000000" stroke-width="2" fill="none"></path></g></g><mask></mask></svg>