<svg version="1.1" xmlns="http://www.w3.org/2000/svg" viewBox="0 0 465.698437720981 228.52704284457423" width="465.698437720981" height="228.52704284457423">
  <!-- svg-source:excalidraw -->
  
  <defs>
    <style class="style-fonts">
      @font-face {
        font-family: "Virgil";
        src: url("https://excalidraw.com/Virgil.woff2");
      }
      @font-face {
        font-family: "Cascadia";
        src: url("https://excalidraw.com/Cascadia.woff2");
      }
      @font-face {
        font-family: "Assistant";
        src: url("https://excalidraw.com/Assistant-Regular.woff2");
      }
    </style>
    
  </defs>
  <rect x="0" y="0" width="465.698437720981" height="228.52704284457423" fill="#ffffff"></rect><g stroke-linecap="round" transform="translate(10 80.52080678928019) rotate(0 59.29536528059407 24.55333375785773)"><path d="M12.28 0 C45.69 0.13, 75.22 -0.4, 106.31 0 M12.28 0 C47.72 0.94, 84.1 -0.55, 106.31 0 M106.31 0 C112.69 0.1, 118.88 4.82, 118.59 12.28 M106.31 0 C112.77 -0.36, 118.52 3.75, 118.59 12.28 M118.59 12.28 C116.96 19.85, 118.81 26.45, 118.59 36.83 M118.59 12.28 C119.18 20.27, 117.84 27.66, 118.59 36.83 M118.59 36.83 C120.25 43.64, 114.78 49.78, 106.31 49.11 M118.59 36.83 C119.02 43.69, 114.92 50.87, 106.31 49.11 M106.31 49.11 C82.17 47.63, 53.37 47.86, 12.28 49.11 M106.31 49.11 C87.11 48.99, 65.5 47.77, 12.28 49.11 M12.28 49.11 C5.52 50.82, 0.14 43.64, 0 36.83 M12.28 49.11 C2 47.51, 0.6 44.45, 0 36.83 M0 36.83 C0.41 27.22, -1.96 21.79, 0 12.28 M0 36.83 C0.66 30.79, 0.47 25.32, 0 12.28 M0 12.28 C-0.62 4.77, 4.92 -1.96, 12.28 0 M0 12.28 C1.21 2.37, 4.93 -0.98, 12.28 0" stroke="#000000" stroke-width="2" fill="none"></path></g><g transform="translate(25.030984528913905 91.36804173341238) rotate(0 41.969970703125 12.5)"><text x="0" y="0" font-family="Virgil, Segoe UI Emoji" font-size="20px" fill="#000000" text-anchor="start" style="white-space: pre;" direction="ltr" dominant-baseline="text-before-edge">GateKey</text></g><g stroke-linecap="round"><g transform="translate(132.058498878534 107.83229624195292) rotate(0 18.30711896390858 -0.47057863918223575)"><path d="M-0.18 -0.13 C5.97 -0.3, 30.37 -0.34, 36.58 -0.55 M0.73 -0.68 C6.82 -1.03, 30.09 -1.26, 36.13 -1.31" stroke="#000000" stroke-width="2" fill="none"></path></g><g transform="translate(132.058498878534 107.83229624195292) rotate(0 18.30711896390858 -0.47057863918223575)"><path d="M35.22 -2.01 L22.86 4.92 L22.7 -7.67 L36.31 -1.13" stroke="none" stroke-width="0" fill="#000000" fill-rule="evenodd"></path><path d="M36.13 -1.31 C32.58 0.24, 29.91 2.52, 22.6 5.17 M36.13 -1.31 C33.16 0.26, 29.82 1.5, 22.6 5.17 M22.6 5.17 C22.31 1.99, 22.05 -1.9, 22.47 -7.51 M22.6 5.17 C22.73 1.45, 22.58 -2.66, 22.47 -7.51 M22.47 -7.51 C24.8 -6.18, 28.39 -4.86, 36.13 -1.31 M22.47 -7.51 C25.7 -6.02, 29.2 -4.23, 36.13 -1.31 M36.13 -1.31 C36.13 -1.31, 36.13 -1.31, 36.13 -1.31 M36.13 -1.31 C36.13 -1.31, 36.13 -1.31, 36.13 -1.31" stroke="#000000" stroke-width="2" fill="none"></path></g></g><mask></mask><g transform="translate(46.93776499560181 10) rotate(0 101.06991577148438 25)"><text x="0" y="0" font-family="Virgil, Segoe UI Emoji" font-size="20px" fill="#000000" text-anchor="start" style="white-space: pre;" direction="ltr" dominant-baseline="text-before-edge">Sends notification</text><text x="0" y="25" font-family="Virgil, Segoe UI Emoji" font-size="20px" fill="#000000" text-anchor="start" style="white-space: pre;" direction="ltr" dominant-baseline="text-before-edge">when the gate opens</text></g><g transform="translate(198.19886821797127 92.41122175563567) rotate(0 30.78997802734375 12.5)"><text x="0" y="0" font-family="Virgil, Segoe UI Emoji" font-size="20px" fill="#000000" text-anchor="start" style="white-space: pre;" direction="ltr" dominant-baseline="text-before-edge">MQTT</text></g><g stroke-linecap="round" transform="translate(171.24208362629724 79.33286824223353) rotate(0 59.29536528059407 24.55333375785773)"><path d="M12.28 0 C42.04 0.86, 73.07 1.4, 106.31 0 M12.28 0 C44.48 0.63, 74.74 1.5, 106.31 0 M106.31 0 C113.23 1.32, 118.07 5.57, 118.59 12.28 M106.31 0 C115.33 0.19, 117.51 3.88, 118.59 12.28 M118.59 12.28 C117.89 16.99, 119.11 23.22, 118.59 36.83 M118.59 12.28 C117.71 18.84, 118.32 27.47, 118.59 36.83 M118.59 36.83 C117.52 44.31, 115.47 50.98, 106.31 49.11 M118.59 36.83 C118.04 46.39, 116.08 49.64, 106.31 49.11 M106.31 49.11 C82.35 47.28, 62.75 51.02, 12.28 49.11 M106.31 49.11 C84.24 48.61, 62.72 49.12, 12.28 49.11 M12.28 49.11 C4.65 47.81, -1.15 46.47, 0 36.83 M12.28 49.11 C6.15 47.59, 1.82 42.89, 0 36.83 M0 36.83 C-1.3 31, 0.42 23.37, 0 12.28 M0 36.83 C-0.44 29.36, -0.46 21.02, 0 12.28 M0 12.28 C-1.85 4.88, 2.67 -0.25, 12.28 0 M0 12.28 C1.18 2.17, 4.41 -1.48, 12.28 0" stroke="#000000" stroke-width="2" fill="none"></path></g><g stroke-linecap="round" transform="translate(337.1077071597929 77.24650819778708) rotate(0 59.29536528059407 24.55333375785773)"><path d="M12.28 0 C43.17 1.39, 72.1 -1.36, 106.31 0 M12.28 0 C46.41 0.2, 80.15 0.24, 106.31 0 M106.31 0 C113.24 -0.35, 118.22 2.34, 118.59 12.28 M106.31 0 C114.83 1.18, 118.39 3.99, 118.59 12.28 M118.59 12.28 C119.78 19.66, 117.54 27.41, 118.59 36.83 M118.59 12.28 C118.55 18.65, 119.75 23.68, 118.59 36.83 M118.59 36.83 C117.53 43.71, 112.74 50.7, 106.31 49.11 M118.59 36.83 C120.11 44.77, 112.36 48.99, 106.31 49.11 M106.31 49.11 C83 48.85, 56.26 48.27, 12.28 49.11 M106.31 49.11 C75.36 48.28, 43.72 49.68, 12.28 49.11 M12.28 49.11 C4.4 50.77, -0.87 46.52, 0 36.83 M12.28 49.11 C6.34 50.72, -0.72 47.16, 0 36.83 M0 36.83 C-0.54 30.46, -1 26.09, 0 12.28 M0 36.83 C0.35 30.99, -1.13 23.68, 0 12.28 M0 12.28 C0.81 4.39, 4.17 1.18, 12.28 0 M0 12.28 C1.96 5.93, 4.93 1.32, 12.28 0" stroke="#000000" stroke-width="2" fill="none"></path></g><g transform="translate(359.7631188271057 89.29984195564475) rotate(0 36.63995361328125 12.5)"><text x="36.63995361328125" y="0" font-family="Virgil, Segoe UI Emoji" font-size="20px" fill="#000000" text-anchor="middle" style="white-space: pre;" direction="ltr" dominant-baseline="text-before-edge">Notifier</text></g><g stroke-linecap="round"><g transform="translate(333.4951803176232 102.1934021157133) rotate(0 -21.068099666207445 0.43923822996953277)"><path d="M-0.19 -0.24 C-7.24 -0.08, -35.27 0.29, -42.34 0.49" stroke="#000000" stroke-width="2.5" fill="none" stroke-dasharray="8 10"></path></g><g transform="translate(333.4951803176232 102.1934021157133) rotate(0 -21.068099666207445 0.43923822996953277)"><path d="M-42.42 1.41 L-28.9 -5.18 L-27.82 6.53 L-43.24 -0.39" stroke="none" stroke-width="0" fill="#000000" fill-rule="evenodd"></path><path d="M-42.34 0.49 C-38.79 -1.66, -35.14 -3.91, -28.87 -6.11 M-28.87 -6.11 C-28.73 -2.03, -28.3 1.01, -28.63 6.56 M-28.63 6.56 C-33.09 3.99, -37.19 2.44, -42.34 0.49 M-42.34 0.49 C-42.34 0.49, -42.34 0.49, -42.34 0.49" stroke="#000000" stroke-width="2.5" fill="none"></path></g></g><mask></mask><g transform="translate(253.4874093958033 143.52704284457423) rotate(0 66.30995178222656 37.5)"><text x="0" y="0" font-family="Virgil, Segoe UI Emoji" font-size="20px" fill="#000000" text-anchor="start" style="white-space: pre;" direction="ltr" dominant-baseline="text-before-edge">Watching for </text><text x="0" y="25" font-family="Virgil, Segoe UI Emoji" font-size="20px" fill="#000000" text-anchor="start" style="white-space: pre;" direction="ltr" dominant-baseline="text-before-edge">notifications</text><text x="0" y="50" font-family="Virgil, Segoe UI Emoji" font-size="20px" fill="#000000" text-anchor="start" style="white-space: pre;" direction="ltr" dominant-baseline="text-before-edge"></text></g><g stroke-linecap="round"><g transform="translate(312.94867066252755 112.23164217787712) rotate(0 0 13.561340288902045)"><path d="M-0.05 0.48 C-0.13 5.04, -0.25 22.77, -0.17 27.2" stroke="#000000" stroke-width="2.5" fill="none" stroke-dasharray="1.5 8"></path></g></g><mask></mask><g stroke-linecap="round"><g transform="translate(147.08304712903328 67.37490122227791) rotate(0 0 13.03975027779046)"><path d="M0.13 -0.17 C0.03 4.24, -0.13 21.81, -0.23 26.13" stroke="#000000" stroke-width="2.5" fill="none" stroke-dasharray="1.5 8"></path></g></g><mask></mask></svg>